{"title":"Saala khadoos (2016) HQ1080p Blu-ray x264 DTS-HDMA 5.1 ESub -DDR","uid":15104546,"size":11593647283,"categoryP":"video","categoryS":"hd___movies","magnet":"?xt=urn:btih:bed229cc126942b94272b8dc2908bdf5736ccb1b&amp;dn=Saala+khadoos+%282016%29+HQ1080p+Blu-ray+x264+DTS-HDMA+5.1+ESub+-DDR&amp;tr=udp%3A%2F%2Ftracker.leechers-paradise.org%3A6969&amp;tr=udp%3A%2F%2Fzer0day.ch%3A1337&amp;tr=udp%3A%2F%2Fopen.demonii.com%3A1337&amp;tr=udp%3A%2F%2Ftracker.coppersurfer.tk%3A6969&amp;tr=udp%3A%2F%2Fexodus.desync.com%3A6969","seeders":1,"leechers":11,"uploader":"SaM","files":3,"time":1466973772,"description":"- BollyWooD Movie-\r\n\r\nSaala Khadoos\r\n\r\nHQ 1080P / x264 / DTS-HDMA 5.1\r\n\r\nEnglish subtitle(s) \r\n \nhttp://extraimago.com/image/a5Vm \nhttp://extraimago.com/image/a5VR \nhttp://extraimago.com/image/a5VQ \nhttp://extraimago.com/image/a5VL \nhttp://extraimago.com/image/a5Vy \nhttp://extraimago.com/image/a5Vq \nhttp://extraimago.com/image/a5VS \nhttp://extraimago.com/image/a5VO \nhttp://extraimago.com/image/a5VE \nhttp://extraimago.com/image/a5V1 \nhttp://extraimago.com/image/a5Vc \nhttp://extraimago.com/image/a5V7 \nhttp://extraimago.com/image/a5Vs \nhttp://extraimago.com/image/a5Vn\r\n\r\nSource : *** DDR Blu-ray ***\r\nFormat : Matroska\r\nFile size : 10.7 GiB\r\nDuration : 1h 46mn\r\nOverall bit rate : 14.3 Mbps\r\nEncoded date : UTC 2016-06-26 15:37:04\r\n\r\nVideo\r\nFormat : AVC\r\nFormat/Info : Advanced Video Codec\r\nFormat profile :   \r\nFormat settings, CABAC : Yes\r\nWidth : 1 920 pixels\r\nHeight : 816 pixels\r\nDisplay aspect ratio : 2.35:1\r\nFrame rate mode : Constant\r\nFrame rate : 24.000 fps\r\nColor space : YUV\r\nChroma subsampling : 4:2:0\r\nBit depth : 8 bits\r\nScan type : Progressive\r\nBits/(Pixel*Frame) : 0.266\r\nStream size : 7.44 GiB (70%)\r\nColor primaries : BT.709\r\n\r\nAudio\r\nFormat : DTS\r\nFormat/Info : Digital Theater Systems\r\nFormat profile : MA / Core\r\nBit rate mode : Variable / Constant\r\nBit rate : 4 357 Kbps / 1 509 Kbps\r\nChannel(s) : 6 channels\r\nChannel positions : Front: L C R, Side: L R, LFE\r\nSampling rate : 48.0 KHz\r\nFrame rate : 93.750 fps (512 spf)\r\nBit depth : 24 bits\r\nCompression mode : Lossless / Lossy\r\nStream size : 3.25 GiB (30%)\r\nLanguage : Hindi\r\nDefault : Yes\r\nForced : No\r\n\r\nChapters : YES\r\n\r\nSample : Included\r\n\r\nA DDR 8th Anniversary Release","torrent":{"xt":"urn:btih:bed229cc126942b94272b8dc2908bdf5736ccb1b","amp;dn":"Saala+khadoos+%282016%29+HQ1080p+Blu-ray+x264+DTS-HDMA+5.1+ESub+-DDR","amp;tr":["udp%3A%2F%2Ftracker.leechers-paradise.org%3A6969","udp%3A%2F%2Fzer0day.ch%3A1337","udp%3A%2F%2Fopen.demonii.com%3A1337","udp%3A%2F%2Ftracker.coppersurfer.tk%3A6969","udp%3A%2F%2Fexodus.desync.com%3A6969"],"infoHash":"bed229cc126942b94272b8dc2908bdf5736ccb1b","infoHashBuffer":{"type":"Buffer","data":[190,210,41,204,18,105,66,185,66,114,184,220,41,8,189,245,115,108,203,27]},"announce":[],"urlList":[]}}